<svg width="30" height="30" viewBox="0 0 30 30" fill="none" xmlns="http://www.w3.org/2000/svg">
<path d="M15 7.29121C13.4767 7.29121 11.9876 7.7425 10.721 8.588C9.45445 9.43351 8.46728 10.6353 7.88433 12.0413C7.30139 13.4473 7.14887 14.9945 7.44605 16.4871C7.74323 17.9797 8.47677 19.3508 9.55391 20.4269C10.631 21.503 12.0034 22.2359 13.4974 22.5328C14.9915 22.8297 16.5401 22.6773 17.9474 22.0949C19.3547 21.5125 20.5576 20.5263 21.4039 19.2609C22.2502 17.9955 22.7019 16.5078 22.7019 14.9859C22.7044 13.9747 22.5069 12.973 22.1207 12.0384C21.7345 11.1037 21.1673 10.2544 20.4516 9.53942C19.7359 8.82441 18.8859 8.25771 17.9503 7.87189C17.0148 7.48608 16.0121 7.28874 15 7.29121ZM15 19.9969C14.008 19.9969 13.0383 19.703 12.2135 19.1524C11.3886 18.6018 10.7458 17.8192 10.3661 16.9035C9.98652 15.9879 9.88719 14.9804 10.0807 14.0083C10.2742 13.0363 10.7519 12.1434 11.4534 11.4426C12.1548 10.7419 13.0486 10.2646 14.0215 10.0713C14.9944 9.87791 16.0029 9.97714 16.9194 10.3564C17.8359 10.7357 18.6192 11.3779 19.1704 12.202C19.7215 13.026 20.0157 13.9949 20.0157 14.9859C20.0157 16.3149 19.4872 17.5895 18.5466 18.5292C17.606 19.4689 16.3302 19.9969 15 19.9969ZM24.8247 6.97216C24.8247 7.34335 24.7145 7.7062 24.5081 8.01483C24.3017 8.32346 24.0083 8.56401 23.665 8.70606C23.3218 8.84811 22.9441 8.88527 22.5797 8.81286C22.2153 8.74044 21.8805 8.5617 21.6178 8.29923C21.3551 8.03676 21.1762 7.70235 21.1037 7.3383C21.0312 6.97424 21.0684 6.59689 21.2106 6.25396C21.3528 5.91102 21.5936 5.61791 21.9025 5.41169C22.2114 5.20547 22.5746 5.0954 22.9461 5.0954C23.4444 5.0954 23.9222 5.29313 24.2745 5.64509C24.6268 5.99705 24.8247 6.47441 24.8247 6.97216ZM29.9155 8.84892C29.9722 6.51542 29.1008 4.25461 27.4922 2.56178C26.6577 1.75587 25.6723 1.12225 24.5925 0.697169C23.5127 0.272085 22.3596 0.0638757 21.1991 0.0844542C18.757 -0.0281514 11.243 -0.0281514 8.80088 0.0844542C6.46626 0.033949 4.20558 0.903662 2.50783 2.50547C0.899236 4.19831 0.0278365 6.45912 0.0845335 8.79262C-0.0281778 11.2324 -0.0281778 18.7394 0.0845335 21.1792C0.0278365 23.5127 0.899236 25.7735 2.50783 27.4664C4.20558 29.0682 6.46626 29.9379 8.80088 29.8874C11.2805 30.0375 18.7195 30.0375 21.1991 29.8874C23.5348 29.944 25.7977 29.0735 27.4922 27.4664C29.1008 25.7735 29.9722 23.5127 29.9155 21.1792C30.0282 18.7394 30.0282 11.2324 29.9155 8.79262V8.84892ZM26.722 23.863C26.4669 24.5085 26.0819 25.0948 25.5907 25.5855C25.0995 26.0762 24.5127 26.4609 23.8666 26.7157C20.9504 27.3047 17.9691 27.5066 15 27.3162C12.0371 27.505 9.06226 27.3031 6.15216 26.7157C5.50606 26.4609 4.91924 26.0762 4.42807 25.5855C3.9369 25.0948 3.55186 24.5085 3.29681 23.863C2.50783 21.8736 2.67689 17.1817 2.67689 15.0047C2.67689 12.8277 2.50783 8.11698 3.29681 6.14639C3.54466 5.49453 3.92696 4.90202 4.41887 4.40734C4.91079 3.91265 5.50133 3.52684 6.15216 3.27495C9.06226 2.68756 12.0371 2.48564 15 2.67438C17.9691 2.48398 20.9504 2.68591 23.8666 3.27495C24.5127 3.52976 25.0995 3.91444 25.5907 4.40515C26.0819 4.89586 26.4669 5.48213 26.722 6.12762C27.511 8.11698 27.3231 12.8089 27.3231 14.9859C27.3231 17.163 27.511 21.8736 26.722 23.8442V23.863Z" fill="white"/>
</svg>
