<svg width="35" height="35" viewBox="0 0 35 35" fill="none" xmlns="http://www.w3.org/2000/svg">
<path d="M27.7812 7.16034C26.4442 5.80982 24.8516 4.73902 23.0965 4.01042C21.3413 3.28181 19.4586 2.90997 17.5583 2.91659C9.59575 2.91659 3.10617 9.40617 3.10617 17.3687C3.10617 19.9208 3.777 22.3999 5.03117 24.5874L2.9895 32.0833L10.6458 30.0708C12.7603 31.2228 15.1374 31.8353 17.5583 31.8353C25.5208 31.8353 32.0103 25.3458 32.0103 17.3833C32.0103 13.5187 30.5083 9.88742 27.7812 7.16034ZM17.5583 29.3853C15.3999 29.3853 13.2853 28.802 11.4333 27.7083L10.9958 27.4458L6.44575 28.6416L7.65617 24.2083L7.3645 23.7562C6.16538 21.8413 5.52866 19.628 5.527 17.3687C5.527 10.7478 10.9228 5.35201 17.5437 5.35201C20.752 5.35201 23.7708 6.60617 26.0312 8.88117C27.1504 9.99529 28.0374 11.3205 28.6407 12.7799C29.244 14.2394 29.5516 15.804 29.5458 17.3833C29.5749 24.0041 24.1791 29.3853 17.5583 29.3853ZM24.1499 20.402C23.7853 20.227 22.0062 19.352 21.6853 19.2208C21.3499 19.1041 21.1166 19.0458 20.8687 19.3958C20.6208 19.7603 19.9353 20.577 19.7312 20.8103C19.527 21.0583 19.3083 21.0874 18.9437 20.8978C18.5791 20.7228 17.4124 20.3291 16.0416 19.1041C14.9624 18.1416 14.2478 16.9603 14.0291 16.5958C13.8249 16.2312 13.9999 16.0416 14.1895 15.852C14.3499 15.6916 14.5541 15.4291 14.7291 15.2249C14.9041 15.0208 14.977 14.8603 15.0937 14.627C15.2103 14.3791 15.152 14.1749 15.0645 13.9999C14.977 13.8249 14.2478 12.0458 13.9562 11.3166C13.6645 10.6166 13.3583 10.7041 13.1395 10.6895H12.4395C12.1916 10.6895 11.8124 10.777 11.477 11.1416C11.1562 11.5062 10.2228 12.3812 10.2228 14.1603C10.2228 15.9395 11.5208 17.6603 11.6958 17.8937C11.8708 18.1416 14.2478 21.7874 17.8645 23.3478C18.7249 23.727 19.3958 23.9458 19.9208 24.1062C20.7812 24.3833 21.5687 24.3395 22.1958 24.252C22.8958 24.1499 24.3395 23.377 24.6312 22.5312C24.9374 21.6853 24.9374 20.9708 24.8353 20.8103C24.7333 20.6499 24.5145 20.577 24.1499 20.402Z" fill="white"/>
</svg>
